<svg width="129" height="129" viewBox="0 0 129 129" fill="none" xmlns="http://www.w3.org/2000/svg">
<ellipse cx="64.1483" cy="64.15" rx="64.1483" ry="64.15" fill="white"/>
<g clip-path="url(#clip0)">
<path d="M92.9273 64.5625L85.3335 61.7967C85.0991 61.7031 84.8179 61.6562 84.5368 61.6562H35.8804C34.5678 61.6562 33.5367 62.6873 33.5367 64V96.9688C33.5367 100.859 36.6772 104 40.5679 104H87.443C91.3338 104 94.4743 100.859 94.4743 96.9688V66.7655C94.4743 65.7813 93.8648 64.8906 92.9273 64.5625Z" fill="#FC1A40"/>
<path d="M94.4744 66.7655V96.9688C94.4744 100.859 91.3339 104 87.4431 104H64.0056V61.6562H84.5368C84.8181 61.6562 85.0993 61.7031 85.3336 61.7967L92.9273 64.5625C93.8648 64.8906 94.4744 65.7813 94.4744 66.7655Z" fill="#C60034"/>
<path d="M93.6307 39.2794C92.834 36.045 90.4432 33.5139 87.2088 32.4825C84.0213 31.498 80.5992 32.2012 78.115 34.4511L72.6774 39.2325L71.5994 32.0608C71.0838 28.7795 68.9744 26.0137 65.8339 24.7014C65.2245 24.4668 64.6152 24.2793 64.0058 24.1856C61.4277 23.67 58.7558 24.2325 56.5994 25.8264C53.74 27.8889 52.287 31.3576 52.7556 34.8262C53.2714 38.295 55.6151 41.2481 58.9431 42.42L64.0058 44.2481L70.2402 46.545C70.287 46.545 70.287 46.545 70.287 46.545L81.1152 50.5292C82.1932 50.9044 83.3182 51.0921 84.3963 51.0921C86.6935 51.0921 88.9433 50.248 90.7246 48.6544C93.3494 46.3106 94.4744 42.7011 93.6307 39.2794Z" fill="#FE9923"/>
<path d="M90.7243 48.6545C88.9431 50.2481 86.6931 51.0922 84.3961 51.0922C83.3181 51.0922 82.1931 50.9045 81.115 50.5293L70.2868 46.5451C70.2868 46.5451 70.2868 46.5451 70.2399 46.5451L64.0056 44.2482V24.1855C64.6149 24.2795 65.2243 24.4668 65.8337 24.7013C68.9742 26.0137 71.0837 28.7795 71.5992 32.0607L72.6771 39.2325L78.1148 34.451C80.599 32.2012 84.0211 31.4979 87.2086 32.4824C90.4429 33.5138 92.8336 36.0449 93.6304 39.2793C94.4744 42.7012 93.3494 46.3107 90.7243 48.6545Z" fill="#FE8821"/>
<path d="M102.49 60.5778L99.3025 69.3903C98.9273 70.3278 98.0367 70.8903 97.0992 70.8903C96.818 70.8903 96.5367 70.8435 96.3025 70.7499L72.0679 61.9374L69.8649 54.6717L64.0055 55.9841L58.8494 57.1559L34.6149 48.3434C33.3961 47.8748 32.7869 46.5153 33.2086 45.3434L36.443 36.5312C37.0524 34.75 38.365 33.3434 40.0525 32.5467C41.74 31.75 43.6618 31.6561 45.443 32.3123L64.0057 39.0623L65.2715 39.5309C65.2715 39.5309 70.3338 48.7186 70.4746 48.7186C70.5685 48.7186 72.584 47.5936 74.5528 46.5153C76.521 45.4372 78.49 44.3123 78.49 44.3123L98.2711 51.5309C100.052 52.1872 101.459 53.4998 102.255 55.1873C103.053 56.8747 103.146 58.7967 102.49 60.5778Z" fill="#FF3E75"/>
<path d="M102.49 60.578L99.3025 69.3905C98.9273 70.328 98.0367 70.8905 97.0992 70.8905C96.818 70.8905 96.5367 70.8436 96.3025 70.7501L72.0679 61.9375L69.8649 54.6719L64.0056 55.9842V39.0625L65.2713 39.5311C65.2713 39.5311 70.3337 48.7188 70.4745 48.7188C70.5684 48.7188 72.5839 47.5938 74.5526 46.5155C76.5211 45.4374 78.49 44.3125 78.49 44.3125L98.2711 51.5311C100.052 52.1874 101.459 53.5 102.255 55.1875C103.053 56.8749 103.146 58.7969 102.49 60.578Z" fill="#FC1A40"/>
<path d="M56.9743 61.6562V104H71.0368V61.6562H56.9743Z" fill="#FCBF29"/>
<path d="M65.2712 39.531L64.0054 42.9998L58.8493 57.1562L64.0054 59.0314L69.8648 61.1407L72.0678 61.9375L78.49 44.3124L65.2712 39.531Z" fill="#FCBF29"/>
<path d="M71.038 61.6562H64.0067V104H71.038V61.6562Z" fill="#FE9923"/>
<path d="M78.49 44.3124L72.0679 61.9375L69.8649 61.1406L64.0056 59.0312V42.9998L65.2712 39.531L78.49 44.3124Z" fill="#FE9923"/>
</g>
<defs>
<clipPath id="clip0">
<rect width="80" height="80" fill="white" transform="translate(28 24)"/>
</clipPath>
</defs>
</svg>
