<svg width="206" height="85" viewBox="0 0 206 85" fill="none" xmlns="http://www.w3.org/2000/svg">
<path d="M142.94 17.9998V31.9998H138.22V26.8398H133.86V31.9998H129.14V17.9998H133.86V22.9598H138.22V17.9998H142.94ZM149.974 20.8598C151.894 20.8598 153.361 21.2931 154.374 22.1598C155.388 23.0131 155.894 24.3331 155.894 26.1198V31.9998H151.694V30.5598C151.174 31.6531 150.141 32.1998 148.594 32.1998C147.728 32.1998 146.988 32.0531 146.374 31.7598C145.774 31.4531 145.314 31.0464 144.994 30.5398C144.688 30.0198 144.534 29.4398 144.534 28.7998C144.534 27.7198 144.948 26.8998 145.774 26.3398C146.601 25.7798 147.854 25.4998 149.534 25.4998H151.354C151.208 24.6464 150.521 24.2198 149.294 24.2198C148.801 24.2198 148.301 24.2998 147.794 24.4598C147.288 24.6064 146.854 24.8131 146.494 25.0798L145.054 22.0998C145.681 21.7131 146.434 21.4131 147.314 21.1998C148.208 20.9731 149.094 20.8598 149.974 20.8598ZM149.954 29.4798C150.274 29.4798 150.561 29.3931 150.814 29.2198C151.068 29.0464 151.254 28.7864 151.374 28.4398V27.6798H150.254C149.334 27.6798 148.874 27.9864 148.874 28.5998C148.874 28.8531 148.968 29.0664 149.154 29.2398C149.354 29.3998 149.621 29.4798 149.954 29.4798ZM165.148 20.8598C166.108 20.8598 166.988 21.0931 167.788 21.5598C168.601 22.0131 169.241 22.6731 169.708 23.5398C170.188 24.4064 170.428 25.4064 170.428 26.5398C170.428 27.6731 170.188 28.6731 169.708 29.5398C169.241 30.3931 168.601 31.0531 167.788 31.5198C166.988 31.9731 166.108 32.1998 165.148 32.1998C163.934 32.1998 163.008 31.8864 162.368 31.2598V35.8798H157.848V21.0598H162.148V21.9598C162.801 21.2264 163.801 20.8598 165.148 20.8598ZM164.068 28.6798C164.588 28.6798 165.014 28.4931 165.348 28.1198C165.681 27.7464 165.848 27.2198 165.848 26.5398C165.848 25.8598 165.681 25.3331 165.348 24.9598C165.014 24.5731 164.588 24.3798 164.068 24.3798C163.548 24.3798 163.121 24.5731 162.788 24.9598C162.454 25.3331 162.288 25.8598 162.288 26.5398C162.288 27.2198 162.454 27.7464 162.788 28.1198C163.121 28.4931 163.548 28.6798 164.068 28.6798ZM179.152 20.8598C180.112 20.8598 180.992 21.0931 181.792 21.5598C182.605 22.0131 183.245 22.6731 183.712 23.5398C184.192 24.4064 184.432 25.4064 184.432 26.5398C184.432 27.6731 184.192 28.6731 183.712 29.5398C183.245 30.3931 182.605 31.0531 181.792 31.5198C180.992 31.9731 180.112 32.1998 179.152 32.1998C177.938 32.1998 177.012 31.8864 176.372 31.2598V35.8798H171.852V21.0598H176.152V21.9598C176.805 21.2264 177.805 20.8598 179.152 20.8598ZM178.072 28.6798C178.592 28.6798 179.018 28.4931 179.352 28.1198C179.685 27.7464 179.852 27.2198 179.852 26.5398C179.852 25.8598 179.685 25.3331 179.352 24.9598C179.018 24.5731 178.592 24.3798 178.072 24.3798C177.552 24.3798 177.125 24.5731 176.792 24.9598C176.458 25.3331 176.292 25.8598 176.292 26.5398C176.292 27.2198 176.458 27.7464 176.792 28.1198C177.125 28.4931 177.552 28.6798 178.072 28.6798ZM197.743 21.0598L193.243 32.2198C192.669 33.6464 191.956 34.6464 191.103 35.2198C190.249 35.7931 189.203 36.0798 187.963 36.0798C187.349 36.0798 186.729 35.9864 186.103 35.7998C185.489 35.6264 185.003 35.3931 184.643 35.0998L186.143 31.9998C186.369 32.1731 186.623 32.3131 186.903 32.4198C187.196 32.5264 187.476 32.5798 187.743 32.5798C188.236 32.5798 188.609 32.4331 188.863 32.1398L184.262 21.0598H188.903L191.163 26.9198L193.463 21.0598H197.743ZM136.3 44.8598C137.26 44.8598 138.14 45.0931 138.94 45.5598C139.753 46.0131 140.393 46.6731 140.86 47.5398C141.34 48.4064 141.58 49.4064 141.58 50.5398C141.58 51.6731 141.34 52.6731 140.86 53.5398C140.393 54.3931 139.753 55.0531 138.94 55.5198C138.14 55.9731 137.26 56.1998 136.3 56.1998C135.087 56.1998 134.16 55.8864 133.52 55.2598V59.8798H129V45.0598H133.3V45.9598C133.953 45.2264 134.953 44.8598 136.3 44.8598ZM135.22 52.6798C135.74 52.6798 136.167 52.4931 136.5 52.1198C136.833 51.7464 137 51.2198 137 50.5398C137 49.8598 136.833 49.3331 136.5 48.9598C136.167 48.5731 135.74 48.3798 135.22 48.3798C134.7 48.3798 134.273 48.5731 133.94 48.9598C133.607 49.3331 133.44 49.8598 133.44 50.5398C133.44 51.2198 133.607 51.7464 133.94 52.1198C134.273 52.4931 134.7 52.6798 135.22 52.6798ZM154.644 50.5198C154.644 50.5864 154.624 50.9398 154.584 51.5798H146.984C147.144 51.9931 147.411 52.3131 147.784 52.5398C148.157 52.7531 148.624 52.8598 149.184 52.8598C149.664 52.8598 150.064 52.7998 150.384 52.6798C150.717 52.5598 151.077 52.3531 151.464 52.0598L153.824 54.4398C152.757 55.6131 151.164 56.1998 149.044 56.1998C147.724 56.1998 146.564 55.9598 145.564 55.4798C144.564 54.9864 143.791 54.3064 143.244 53.4398C142.697 52.5731 142.424 51.5998 142.424 50.5198C142.424 49.4264 142.691 48.4531 143.224 47.5998C143.771 46.7331 144.511 46.0598 145.444 45.5798C146.391 45.0998 147.451 44.8598 148.624 44.8598C149.731 44.8598 150.737 45.0798 151.644 45.5198C152.564 45.9598 153.291 46.6064 153.824 47.4598C154.371 48.3131 154.644 49.3331 154.644 50.5198ZM148.664 47.9398C148.197 47.9398 147.811 48.0664 147.504 48.3198C147.197 48.5731 146.997 48.9331 146.904 49.3998H150.424C150.331 48.9464 150.131 48.5931 149.824 48.3398C149.517 48.0731 149.131 47.9398 148.664 47.9398ZM161.85 56.1998C160.637 56.1998 159.544 55.9598 158.57 55.4798C157.61 54.9864 156.857 54.3131 156.31 53.4598C155.764 52.5931 155.49 51.6131 155.49 50.5198C155.49 49.4264 155.764 48.4531 156.31 47.5998C156.857 46.7331 157.61 46.0598 158.57 45.5798C159.544 45.0998 160.637 44.8598 161.85 44.8598C163.077 44.8598 164.17 45.0998 165.13 45.5798C166.104 46.0598 166.857 46.7331 167.39 47.5998C167.937 48.4531 168.21 49.4264 168.21 50.5198C168.21 51.6131 167.937 52.5931 167.39 53.4598C166.857 54.3131 166.104 54.9864 165.13 55.4798C164.17 55.9598 163.077 56.1998 161.85 56.1998ZM161.85 52.6798C162.37 52.6798 162.797 52.4931 163.13 52.1198C163.464 51.7331 163.63 51.1998 163.63 50.5198C163.63 49.8398 163.464 49.3131 163.13 48.9398C162.797 48.5664 162.37 48.3798 161.85 48.3798C161.33 48.3798 160.904 48.5664 160.57 48.9398C160.237 49.3131 160.07 49.8398 160.07 50.5198C160.07 51.1998 160.237 51.7331 160.57 52.1198C160.904 52.4931 161.33 52.6798 161.85 52.6798ZM176.925 44.8598C177.885 44.8598 178.765 45.0931 179.565 45.5598C180.378 46.0131 181.018 46.6731 181.485 47.5398C181.965 48.4064 182.205 49.4064 182.205 50.5398C182.205 51.6731 181.965 52.6731 181.485 53.5398C181.018 54.3931 180.378 55.0531 179.565 55.5198C178.765 55.9731 177.885 56.1998 176.925 56.1998C175.712 56.1998 174.785 55.8864 174.145 55.2598V59.8798H169.625V45.0598H173.925V45.9598C174.578 45.2264 175.578 44.8598 176.925 44.8598ZM175.845 52.6798C176.365 52.6798 176.792 52.4931 177.125 52.1198C177.458 51.7464 177.625 51.2198 177.625 50.5398C177.625 49.8598 177.458 49.3331 177.125 48.9598C176.792 48.5731 176.365 48.3798 175.845 48.3798C175.325 48.3798 174.898 48.5731 174.565 48.9598C174.232 49.3331 174.065 49.8598 174.065 50.5398C174.065 51.2198 174.232 51.7464 174.565 52.1198C174.898 52.4931 175.325 52.6798 175.845 52.6798ZM183.629 41.1598H188.149V55.9998H183.629V41.1598ZM201.792 50.5198C201.792 50.5864 201.772 50.9398 201.732 51.5798H194.132C194.292 51.9931 194.559 52.3131 194.932 52.5398C195.306 52.7531 195.772 52.8598 196.332 52.8598C196.812 52.8598 197.212 52.7998 197.532 52.6798C197.866 52.5598 198.226 52.3531 198.612 52.0598L200.972 54.4398C199.906 55.6131 198.312 56.1998 196.192 56.1998C194.872 56.1998 193.712 55.9598 192.712 55.4798C191.712 54.9864 190.939 54.3064 190.392 53.4398C189.846 52.5731 189.572 51.5998 189.572 50.5198C189.572 49.4264 189.839 48.4531 190.372 47.5998C190.919 46.7331 191.659 46.0598 192.592 45.5798C193.539 45.0998 194.599 44.8598 195.772 44.8598C196.879 44.8598 197.886 45.0798 198.792 45.5198C199.712 45.9598 200.439 46.6064 200.972 47.4598C201.519 48.3131 201.792 49.3331 201.792 50.5198ZM195.812 47.9398C195.346 47.9398 194.959 48.0664 194.652 48.3198C194.346 48.5731 194.146 48.9331 194.052 49.3998H197.572C197.479 48.9464 197.279 48.5931 196.972 48.3398C196.666 48.0731 196.279 47.9398 195.812 47.9398Z" fill="white"/>
<g filter="url(#filter0_d)">
<rect x="20" y="15.5247" width="59.0692" height="43.9065" rx="7" fill="#DD6CDF"/>
</g>
<path d="M47.75 26.8125V47.8125H42.89V39.2025H33.35V47.8125H28.49V26.8125H33.35V35.0925H42.89V26.8125H47.75ZM61.8085 26.8125C63.6685 26.8125 65.2785 27.1225 66.6385 27.7425C68.0185 28.3625 69.0785 29.2425 69.8185 30.3825C70.5585 31.5225 70.9285 32.8725 70.9285 34.4325C70.9285 35.9725 70.5585 37.3225 69.8185 38.4825C69.0785 39.6225 68.0185 40.5025 66.6385 41.1225C65.2785 41.7225 63.6685 42.0225 61.8085 42.0225H57.5785V47.8125H52.7185V26.8125H61.8085ZM61.5385 38.0625C62.9985 38.0625 64.1085 37.7525 64.8685 37.1325C65.6285 36.4925 66.0085 35.5925 66.0085 34.4325C66.0085 33.2525 65.6285 32.3525 64.8685 31.7325C64.1085 31.0925 62.9985 30.7725 61.5385 30.7725H57.5785V38.0625H61.5385Z" fill="white"/>
<g clip-path="url(#clip0)">
<path d="M110.088 52.2383L83.5666 38.1593V37.1118C83.5666 35.9173 84.3108 34.8061 85.5088 34.212C88.2079 32.8737 89.8121 30.2958 89.6957 27.4846C89.5382 23.6845 86.1658 20.5946 82.0184 20.4504C79.8238 20.3732 77.7455 21.099 76.1663 22.4915C74.586 23.8851 73.7158 25.7591 73.7158 27.7682C73.7158 28.7081 74.5476 29.4701 75.5737 29.4701C76.5998 29.4701 77.4316 28.7081 77.4316 27.7682C77.4316 26.6927 77.8975 25.6898 78.7433 24.9438C79.5882 24.1987 80.6999 23.8099 81.8773 23.8519C84.095 23.929 85.8982 25.5814 85.9826 27.6137C86.045 29.1202 85.1856 30.5014 83.7401 31.2184C81.3411 32.408 79.8508 34.6662 79.8508 37.1118V38.1593L53.3295 52.2383C51.2758 53.3286 50 55.3569 50 57.5316C50 60.9048 52.9952 63.649 56.6769 63.649H106.741C110.422 63.649 113.417 60.9046 113.417 57.5315C113.417 55.3568 112.142 53.3286 110.088 52.2383ZM106.741 60.245H56.6769C55.0442 60.245 53.7159 59.0276 53.7159 57.5315C53.7159 56.5668 54.2817 55.6671 55.1927 55.1836L81.7087 41.1074L108.225 55.1836C109.136 55.6672 109.702 56.5668 109.702 57.5316C109.702 59.0278 108.373 60.245 106.741 60.245Z" fill="white"/>
</g>
<defs>
<filter id="filter0_d" x="0" y="0.524658" width="99.0692" height="83.9065" filterUnits="userSpaceOnUse" color-interpolation-filters="sRGB">
<feFlood flood-opacity="0" result="BackgroundImageFix"/>
<feColorMatrix in="SourceAlpha" type="matrix" values="0 0 0 0 0 0 0 0 0 0 0 0 0 0 0 0 0 0 127 0"/>
<feOffset dy="5"/>
<feGaussianBlur stdDeviation="10"/>
<feColorMatrix type="matrix" values="0 0 0 0 0 0 0 0 0 0 0 0 0 0 0 0 0 0 0.35 0"/>
<feBlend mode="normal" in2="BackgroundImageFix" result="effect1_dropShadow"/>
<feBlend mode="normal" in="SourceGraphic" in2="effect1_dropShadow" result="shape"/>
</filter>
<clipPath id="clip0">
<rect width="63.4174" height="58.0945" fill="white" transform="translate(50 12.9998)"/>
</clipPath>
</defs>
</svg>
